<svg xmlns="http://www.w3.org/2000/svg" viewBox="0 0 531.22 390.61"><defs><style>.a{fill:#fff;}</style></defs><title>fwBgCW.tif</title><path class="a" d="M0,178.22a18.49,18.49,0,0,0,1.49-1.3q23.72-25.42,47.44-50.84a3.14,3.14,0,0,0,.79-3.56c-4.09-13.17-8.12-26.36-12.23-39.75l2.78-1c1.37,4.39,2.72,8.69,4,13,2.74,8.93,5.53,17.86,8.15,26.83a3.29,3.29,0,0,0,2.84,2.61c22.33,5.14,44.65,10.35,67,15.44a3.85,3.85,0,0,1,3.24,3.09c6.63,21.93,13.35,43.84,20,65.77a4.68,4.68,0,0,0,2.73,3.24q30.9,14.29,61.71,28.75a3.2,3.2,0,0,0,3.31-.15c20.23-11.27,40.5-22.46,60.71-33.75a3.51,3.51,0,0,1,4.09.08c19.62,11.88,39.29,23.67,58.91,35.55a3.44,3.44,0,0,0,4.05.06c10.91-6.14,21.88-12.17,32.83-18.24.72-.4,1.46-.75,2.35-1.21.46.91.86,1.68,1.34,2.62l-3.65,2.05c-11,6.1-22.06,12.18-33.05,18.33a3.15,3.15,0,0,1-3.69-.05q-29.62-17.9-59.32-35.72A3.3,3.3,0,0,0,274,210q-29.43,16.44-58.95,32.73a4,4,0,0,0-2.26,3.47q-4.15,34.49-8.54,69c-.1.77-.82,2-1.42,2.1-15.81,3.19-31.65,6.27-47.71,9.41l-.76-2.91c3.88-.77,7.62-1.53,11.37-2.26q16.88-3.25,33.77-6.46a2.14,2.14,0,0,0,2.09-2.12q3.61-30.23,7.34-60.44c.26-2.17.49-4.35.86-6.51.27-1.58-.24-2.37-1.75-3.07Q181.48,230.57,155,218.1c-2.46-1.15-5-2.21-7.35-3.5-1.59-.86-2.56-.68-3.82.7q-17.52,19-35.18,37.81c-3.45,3.7-6.86,7.44-10.39,11.07a2.41,2.41,0,0,0-.46,3.43c6.21,11.05,12.32,22.15,18.45,33.24.4.72.78,1.45,1.28,2.4l-2.65,1.5c-2.37-4.28-4.67-8.43-7-12.58-4.33-7.86-8.69-15.7-13-23.59A3.89,3.89,0,0,0,92,266.42c-22.56-5.13-45.11-10.36-67.67-15.48a3.53,3.53,0,0,1-3-2.78Q11.21,214.74.94,181.34A21.23,21.23,0,0,0,0,179.13Zm94.09,85.6a8.11,8.11,0,0,0,1.4-1q23.39-25.11,46.71-50.28a3.06,3.06,0,0,0,.59-2.51q-9.9-32.91-20-65.76a3.09,3.09,0,0,0-1.93-1.76C98.68,137.29,76.49,132.2,54.32,127A3,3,0,0,0,51,128.11Q28.08,152.88,5,177.52a3.33,3.33,0,0,0-.88,3.77q9.81,32,19.48,64a4,4,0,0,0,3.46,3.14c14.93,3.35,29.84,6.82,44.75,10.24Z"/><path class="a" d="M461.25,245.8c-.47,17-.92,33.26-1.37,49.63H457c0-.9,0-1.7,0-2.49.38-15.55.75-31.1,1.2-46.64a3,3,0,0,0-1.69-3.05c-9.19-5.48-18.34-11.05-27.72-16.72l1.4-2.47c2.5,1.48,4.9,2.89,7.29,4.32,9.05,5.42,18.12,10.83,27.14,16.32a3,3,0,0,0,3.46,0q29.63-16.55,59.3-33c.71-.4,1.45-.76,2.31-1.21.49.79.91,1.47,1.49,2.39-.69.43-1.29.83-1.91,1.17q-26.2,14.57-52.43,29.07a4.23,4.23,0,0,0-2.56,4.17c-.3,15.24-.76,30.48-1.17,45.72,0,.75-.08,1.5-.14,2.47l-2.83.14c.41-16.39.83-32.64,1.26-49.69C467.91,249.29,464.63,249.45,461.25,245.8Z"/><path class="a" d="M116.11,312.94c3.24-.8,5.34-.1,7.16,2.94,5,8.35,10.38,16.45,15.62,24.64.39.6.82,1.18,1.63,2.33v-30h4.34v36.67c-4,1.05-4.94.69-7-2.54-5.64-8.84-11.27-17.67-17.33-26.46v29.23h-4.42Z"/><path class="a" d="M418,229.33c-4.41.9-4.91.7-7.1-2.72q-7.72-12.11-15.45-24.22a6.41,6.41,0,0,0-1.79-2v29.07h-4.4v-36.7c3.87-1,4.71-.7,6.69,2.41L412,220.34c.4.62.83,1.22,1.6,2.35V192.56H418Z"/><path class="a" d="M48.69,56.66C48.54,65.51,44.15,72.47,37,74.93,24.83,79.14,13.47,71.3,12.76,58.12c-.29-5.42.68-10.58,4.24-14.87C21.8,37.47,28.15,36,35.2,37.6S46.35,44.12,48,51.07A54.76,54.76,0,0,1,48.69,56.66Zm-31.29.19c.09,1,.14,2.09.29,3.13.94,6.64,5.74,11.44,11.77,11.79,6.93.41,12-3.3,13.81-10.11a19.51,19.51,0,0,0-.73-12.42,12.77,12.77,0,0,0-18.79-6.13C18.79,46.31,17.51,51.32,17.4,56.85Z"/><path class="a" d="M464.94,303.27c8.69,0,15.15,5.14,17.13,13.59a24.06,24.06,0,0,1-.27,12.74c-2.61,8.57-9.7,13.33-18.6,12.55a17.09,17.09,0,0,1-15.94-15.79,32,32,0,0,1,.43-9.42C449.48,308.39,456.19,303.25,464.94,303.27Zm13.59,19.66c-.71-2.83-1-5.56-2.07-8-2.06-4.92-6-7.42-11.35-7.52s-9.5,2.31-11.76,7.24a18.72,18.72,0,0,0,0,16.19,11.84,11.84,0,0,0,11.35,7.22c5.27,0,9.4-2.29,11.58-7.17C477.4,328.4,477.8,325.6,478.53,322.93Z"/><path class="a" d="M394.18,170.1v16.57h-4.62V149.84h4.56v15.77h19.09v-15.8h4.68v36.9h-4.53V170.1Z"/><path class="a" d="M120.92,369.52h19.21V353.74h4.69v36.82h-4.63V374H121.05v16.66H116.5V353.75h4.42Z"/><path class="a" d="M195.9,250.71l3,.43c-2.22,17.9-4.42,35.67-6.64,53.6l-3-.18C191.46,286.62,193.67,268.78,195.9,250.71Z"/><path class="a" d="M79.45,0,81.7,1.94,49.05,37l-2.27-2.06Z"/><path class="a" d="M91.58,252l-2.25-2.07L129,207.45l2.26,2Z"/><path class="a" d="M35.12,237.4l-2.85.84C26.61,219.72,21,201.38,15.34,182.81l2.8-1.11C23.8,200.28,29.43,218.73,35.12,237.4Z"/><path class="a" d="M56.08,141l.79-2.82,56.45,13-.57,3Z"/></svg>