<svg xmlns="http://www.w3.org/2000/svg" viewBox="0 0 67 95.5"><defs><style>.a{fill:#fff;}</style></defs><title>Asset 1</title><path class="a" d="M48.72,52.26H39V42.58a1.38,1.38,0,0,0-1.38-1.38h-8.3A1.38,1.38,0,0,0,28,42.58v9.68H18.28a1.39,1.39,0,0,0-1.38,1.39V62a1.38,1.38,0,0,0,1.38,1.38H28V73a1.38,1.38,0,0,0,1.38,1.38h8.3A1.38,1.38,0,0,0,39,73V63.33h9.69A1.38,1.38,0,0,0,50.1,62v-8.3A1.39,1.39,0,0,0,48.72,52.26Z"/><path class="a" d="M57.5,8.5H42.71a9.24,9.24,0,0,0-18.42,0H9.5A9.5,9.5,0,0,0,0,18V86a9.5,9.5,0,0,0,9.5,9.5h48A9.5,9.5,0,0,0,67,86V18A9.5,9.5,0,0,0,57.5,8.5Zm-27.71-3a5.25,5.25,0,0,1,9,3.71,4.65,4.65,0,0,1-.08.75,5.22,5.22,0,0,1-10.34,0,4.65,4.65,0,0,1-.08-.75A5.17,5.17,0,0,1,29.79,5.54ZM64,86a6.52,6.52,0,0,1-6.5,6.5H9.5A6.52,6.52,0,0,1,3,86V18a6.52,6.52,0,0,1,6.5-6.5h3v7.43A1.07,1.07,0,0,0,13.57,20H53.43a1.07,1.07,0,0,0,1.07-1.07V11.5h3A6.52,6.52,0,0,1,64,18Z"/></svg>